<?xml version="1.0" ?><!DOCTYPE svg  PUBLIC '-//W3C//DTD SVG 1.1//EN'  'http://www.w3.org/Graphics/SVG/1.1/DTD/svg11.dtd'><svg height="100%" style="fill-rule:evenodd;clip-rule:evenodd;stroke-linejoin:round;stroke-miterlimit:2;" version="1.1" viewBox="0 0 32 32" width="100%" xml:space="preserve" xmlns="http://www.w3.org/2000/svg" xmlns:serif="http://www.serif.com/" xmlns:xlink="http://www.w3.org/1999/xlink"><path d="M24.434,18.777l2.121,-2.122c3.122,-3.122 3.122,-8.191 -0,-11.313c-3.122,-3.122 -8.192,-3.122 -11.314,-0c0,-0 -2.121,2.121 -2.121,2.121c-0.39,0.39 -0.39,1.024 -0,1.414c0.39,0.391 1.024,0.391 1.414,0l2.121,-2.121c2.342,-2.342 6.144,-2.342 8.486,-0c2.341,2.342 2.341,6.144 -0,8.485c-0,0 -2.122,2.122 -2.122,2.122c-0.39,0.39 -0.39,1.024 0,1.414c0.391,0.39 1.024,0.39 1.415,-0Z"/><path d="M7.463,13.12l-2.121,2.121c-3.122,3.122 -3.122,8.192 -0,11.314c3.122,3.122 8.191,3.122 11.313,-0c0,-0 2.122,-2.121 2.122,-2.121c0.39,-0.391 0.39,-1.024 -0,-1.415c-0.39,-0.39 -1.024,-0.39 -1.414,0l-2.122,2.122c-2.341,2.341 -6.143,2.341 -8.485,-0c-2.342,-2.342 -2.342,-6.144 -0,-8.486c-0,0 2.121,-2.121 2.121,-2.121c0.391,-0.39 0.391,-1.024 0,-1.414c-0.39,-0.39 -1.024,-0.39 -1.414,-0Z"/><path d="M10.999,22.312l11.313,-11.313c0.391,-0.391 0.391,-1.024 0,-1.415c-0.39,-0.39 -1.024,-0.39 -1.414,0l-11.314,11.314c-0.39,0.39 -0.39,1.024 0,1.414c0.391,0.391 1.024,0.391 1.415,0Z"/></svg>