<?xml version="1.0" standalone="no"?>
<!DOCTYPE svg PUBLIC "-//W3C//DTD SVG 20010904//EN"
 "http://www.w3.org/TR/2001/REC-SVG-20010904/DTD/svg10.dtd">
<svg version="1.0" xmlns="http://www.w3.org/2000/svg"
 width="167.000000pt" height="165.000000pt" viewBox="0 0 167.000000 165.000000"
 preserveAspectRatio="xMidYMid meet">
<metadata>
Created by potrace 1.16, written by Peter Selinger 2001-2019
</metadata>
<g transform="translate(0.000000,165.000000) scale(0.100000,-0.100000)"
fill="#000000" stroke="none">
<path d="M730 1640 c-152 -21 -324 -99 -440 -200 -208 -181 -311 -478 -263
-757 3 -22 11 -33 22 -33 13 0 13 -2 2 -9 -11 -7 -11 -15 -2 -37 8 -22 10 -23
7 -6 -3 17 -1 22 9 18 8 -3 16 3 18 12 3 9 5 0 6 -20 1 -31 5 -38 21 -38 13 0
24 -10 30 -26 8 -20 16 -25 37 -22 29 3 83 -36 83 -60 0 -7 5 -10 11 -7 6 4 8
14 5 22 -4 10 -2 13 8 10 7 -3 22 0 32 7 17 11 107 52 202 93 31 13 33 12 41
-9 5 -13 22 -37 37 -55 26 -28 30 -30 43 -16 12 13 11 14 -9 8 -14 -5 -20 -3
-16 3 3 6 28 10 54 10 52 1 122 33 122 57 0 8 12 15 28 17 23 3 27 8 29 35 1
18 9 40 18 50 16 16 16 17 -1 24 -18 7 -17 8 4 15 12 3 22 13 22 20 0 8 3 14
8 14 4 0 12 8 18 18 11 17 7 18 -38 18 -38 0 -54 5 -64 19 -20 27 -18 30 28
41 51 11 63 32 14 26 -18 -2 -37 1 -40 7 -5 7 3 12 21 12 72 4 96 8 106 18 8
8 -7 11 -53 13 -36 0 -74 0 -85 0 -18 -2 -18 0 5 18 14 11 35 23 48 26 26 7
30 27 5 22 -34 -5 -43 11 -43 75 0 74 -17 104 -64 112 -27 6 -33 11 -29 26 3
10 9 19 13 19 4 0 7 15 5 33 -3 39 19 77 45 77 10 0 22 5 25 10 3 6 22 10 41
10 28 0 45 -10 85 -47 29 -27 48 -52 45 -60 -3 -8 -1 -11 4 -8 6 3 10 -3 10
-13 0 -11 7 -25 15 -32 21 -17 28 -88 16 -150 -7 -30 -13 -78 -14 -107 -2 -44
-8 -58 -36 -87 -19 -20 -28 -35 -21 -38 7 -2 12 -20 13 -40 0 -20 5 -35 9 -32
4 3 8 -3 8 -14 0 -22 28 -50 56 -55 10 -1 24 -6 30 -9 16 -11 54 3 54 18 0 12
4 13 28 1 15 -8 52 -17 82 -21 30 -4 83 -14 117 -23 73 -18 96 -43 145 -153
17 -39 35 -70 39 -70 13 0 54 87 77 162 119 384 -56 796 -413 973 -148 74
-324 105 -475 85z"/>
</g>
</svg>
